<svg xmlns="http://www.w3.org/2000/svg" xmlns:xlink="http://www.w3.org/1999/xlink" id="Logo" width="142.67186mm" height="141.38052mm" viewBox="0 0 404.42417 400.76368">
  <defs>
    <radialGradient id="radial-gradient" cx="192.67312" cy="125.14999" r="41.90109" gradientUnits="userSpaceOnUse">
      <stop offset="0" stop-color="#4896d2"/>
      <stop offset="1" stop-color="#1a2165"/>
    </radialGradient>
    <linearGradient id="linear-gradient" x1="101.7061" y1="121.70716" x2="172.17643" y2="13.19237" xlink:href="#radial-gradient"/>
    <linearGradient id="linear-gradient-2" x1="129.8345" y1="-3.35432" x2="304.89283" y2="67.37383" xlink:href="#radial-gradient"/>
    <linearGradient id="linear-gradient-3" x1="-2903.39062" y1="-3282.6878" x2="-2832.92302" y2="-3391.19839" gradientTransform="translate(1626.24539 -3916.90871) rotate(-120.00073)" xlink:href="#radial-gradient"/>
    <linearGradient id="linear-gradient-4" x1="-2875.26818" y1="-3407.74514" x2="-2700.19219" y2="-3337.00985" gradientTransform="translate(1626.24539 -3916.90871) rotate(-120.00073)" xlink:href="#radial-gradient"/>
    <linearGradient id="linear-gradient-5" x1="1547.68612" y1="-4183.19893" x2="1618.15806" y2="-4291.71619" gradientTransform="translate(-2579.0136 -3367.21045) rotate(120.00073)" xlink:href="#radial-gradient"/>
    <linearGradient id="linear-gradient-6" x1="1575.81401" y1="-4308.26196" x2="1750.88218" y2="-4237.52983" gradientTransform="translate(-2579.0136 -3367.21045) rotate(120.00073)" xlink:href="#radial-gradient"/>
  </defs>
  <g>
    <g>
      <path d="M222.151,119.6322a29.76429,29.76429,0,1,0,2.1811,42.0493A29.7893,29.7893,0,0,0,222.151,119.6322Z" fill="url(#radial-gradient)"/>
      <path d="M116.96419,28.5017a142.2138,142.2138,0,0,0-44.8627,56.9754c11.7775,2.903,47.0394,14.3786,63.2173,58.0584,4.8661-1.5857,15.3552-7.6988,22.6329-31.3004,9.759-31.599,28.2721-61.9917,52.2801-72.1969C186.29069,16.3522,154.74719,10.7748,116.96419,28.5017Z" fill="url(#linear-gradient)"/>
      <path d="M311.36359,51.35l.0066-.0082a141.72243,141.72243,0,0,0-194.4066-22.8395c52.4527-24.6102,92.8782-4.3082,117.6338,47.007C274.02989,82.5816,300.81019,62.961,311.36359,51.35Z" fill="url(#linear-gradient-2)"/>
      <path d="M146.79349,272.1639a142.19022,142.19022,0,0,0,71.7692,10.3676c-3.3746-11.6519-11.0681-47.9299,18.6673-83.7815-3.8058-3.4214-14.3444-9.4497-38.4211-3.9518-32.2425,7.3471-67.8178,6.5094-88.6593-9.1815C101.60929,218.1951,112.55149,248.3033,146.79349,272.1639Z" fill="url(#linear-gradient-3)"/>
      <path d="M69.37939,92.3708l-.0103-.0016a141.7457,141.7457,0,0,0,77.425,179.795c-47.5373-33.1241-50.1696-78.2873-18.1106-125.3859C115.09149,109.0897,84.71039,95.7058,69.37939,92.3708Z" fill="url(#linear-gradient-4)"/>
      <path d="M342.87879,124.4977a142.21694,142.21694,0,0,0-26.9065-67.343c-8.4025,8.7488-35.9709,33.5512-81.8846,25.723-1.06,5.0072-1.0107,17.1485,15.7883,35.2525,22.4837,24.2517,39.5458,55.4821,36.3791,81.3781C318.73649,190.616,339.33809,166.0849,342.87879,124.4977Z" fill="url(#linear-gradient-5)"/>
      <path d="M225.89379,281.4425l.0037.0094A141.7409,141.7409,0,0,0,342.87879,124.497c-4.9151,57.7341-42.7082,82.5955-99.5229,78.3787C217.51539,233.4919,221.11579,266.4968,225.89379,281.4425Z" fill="url(#linear-gradient-6)"/>
    </g>
    <g>
      <path d="M12.16734,399.78968H0V343.01112H19.54774a37.85457,37.85457,0,0,1,9.65292,1.13566,20.7319,20.7319,0,0,1,7.34018,3.4477,15.04357,15.04357,0,0,1,4.6634,5.92131,20.515,20.515,0,0,1,1.62346,8.47554,20.73238,20.73238,0,0,1-1.66328,8.51766,16.704,16.704,0,0,1-4.82616,6.28586,22.03157,22.03157,0,0,1-7.70543,3.89348A36.14355,36.14355,0,0,1,18.413,382.02627H12.16734Zm-.2438-28.47036h6.65171q5.51437,0,8.59789-2.14957,3.08115-2.14742,3.08185-6.69152,0-4.78554-3.00192-6.77215-3.00038-1.98705-8.59759-1.988H11.92354Z" fill="#3a3a39"/>
      <path d="M79.65125,400.76368a31.73347,31.73347,0,0,1-11.23406-1.90607,23.68349,23.68349,0,0,1-8.71964-5.63769,25.27122,25.27122,0,0,1-5.63739-9.20684,36.84764,36.84764,0,0,1-1.98641-12.61193,35.54047,35.54047,0,0,1,2.06834-12.61342,26.19513,26.19513,0,0,1,5.71772-9.20594,23.81614,23.81614,0,0,1,8.63931-5.63739,30.08557,30.08557,0,0,1,10.8275-1.90607,31.8031,31.8031,0,0,1,11.72086,2.02812A23.46484,23.46484,0,0,1,99.726,349.8645a25.2598,25.2598,0,0,1,5.395,9.24726,37.991,37.991,0,0,1,1.86435,12.28939,37.51316,37.51316,0,0,1-2.06764,13.09943,24.60109,24.60109,0,0,1-5.75853,9.16542,23.19626,23.19626,0,0,1-8.67913,5.35377A32.6193,32.6193,0,0,1,79.65125,400.76368Zm.40567-10.70765a14.00434,14.00434,0,0,0,5.6779-1.13556,11.72,11.72,0,0,0,4.46132-3.4477,16.44157,16.44157,0,0,0,2.87957-5.79835,29.86933,29.86933,0,0,0,1.01391-8.27327q0-9.65307-4.05545-14.155a13.72408,13.72408,0,0,0-10.70755-4.50142,14.10118,14.10118,0,0,0-5.63749,1.13566,12.30357,12.30357,0,0,0-4.58206,3.4477,16.57038,16.57038,0,0,0-3.04174,5.83977,27.85489,27.85489,0,0,0-1.09554,8.23334,25.96535,25.96535,0,0,0,1.17587,8.27327,16.82177,16.82177,0,0,0,3.20361,5.79835,12.76553,12.76553,0,0,0,4.78564,3.4477A15.39171,15.39171,0,0,0,80.05692,390.056Z" fill="#3a3a39"/>
      <path d="M161.49259,397.54083q-1.13817.56622-2.4736,1.12773a23.89672,23.89672,0,0,1-3.16379,1.04771,30.81524,30.81524,0,0,1-4.21661.7658,47.70843,47.70843,0,0,1-5.47652.28161,35.44471,35.44471,0,0,1-11.8015-1.866,24.85,24.85,0,0,1-9.08419-5.47582,24.3161,24.3161,0,0,1-5.83947-8.96184,34.04818,34.04818,0,0,1-2.06924-12.32921,37.42072,37.42072,0,0,1,2.06924-12.93715,24.35289,24.35289,0,0,1,15.41086-15.20878,37.75219,37.75219,0,0,1,12.53279-1.94659,38.98224,38.98224,0,0,1,8.31368.81093,29.59417,29.59417,0,0,1,5.96152,1.86535l-2.67819,10.21975a30.13166,30.13166,0,0,0-5.27194-1.29752,31.60387,31.60387,0,0,0-4.62348-.405,26.0493,26.0493,0,0,0-7.66341,1.05664,15.44272,15.44272,0,0,0-5.92251,3.29245,15.03245,15.03245,0,0,0-3.85336,5.69015,21.98687,21.98687,0,0,0-1.37716,8.16986q0,9.02427,5.06986,13.57649,5.0658,4.55223,13.66565,4.55267a25.5578,25.5578,0,0,0,4.70441-.52731,25.036,25.036,0,0,0,5.35478-1.66267Z" fill="#3a3a39"/>
      <path d="M207.72437,387.38015H185.9051l-4.05564,12.40953h-12.004l19.38658-56.77856h15.81572l19.14308,56.77856H211.78011ZM189.23206,376.6731h15.16766l-7.54357-23.84719Z" fill="#3a3a39"/>
      <path d="M251.8522,399.78968H239.68485V354.20437H223.5424V343.01112h44.36932v11.19325H251.8522Z" fill="#3a3a39"/>
      <path d="M301.16653,400.76368a31.74223,31.74223,0,0,1-11.23407-1.90607,23.67278,23.67278,0,0,1-8.71834-5.63769,25.25325,25.25325,0,0,1-5.63709-9.20684,36.82153,36.82153,0,0,1-1.989-12.61193,35.54634,35.54634,0,0,1,2.06935-12.61342,26.23543,26.23543,0,0,1,5.71772-9.20594,23.816,23.816,0,0,1,8.6384-5.63739,30.10626,30.10626,0,0,1,10.829-1.90607,31.80673,31.80673,0,0,1,11.721,2.02812,23.473,23.473,0,0,1,8.67912,5.79805,25.29555,25.29555,0,0,1,5.394,9.24726,37.95525,37.95525,0,0,1,1.86466,12.28939,37.56977,37.56977,0,0,1-2.067,13.09943,24.59068,24.59068,0,0,1-5.75974,9.16542,23.21123,23.21123,0,0,1-8.67913,5.35377A32.61627,32.61627,0,0,1,301.16653,400.76368Zm.40656-10.70765a14.00215,14.00215,0,0,0,5.677-1.13556,11.695,11.695,0,0,0,4.46031-3.4477,16.44114,16.44114,0,0,0,2.88087-5.79835,29.8425,29.8425,0,0,0,1.01391-8.27327q0-9.65307-4.05565-14.155a13.72313,13.72313,0,0,0-10.707-4.50142,14.10763,14.10763,0,0,0-5.63809,1.13566,12.30841,12.30841,0,0,0-4.58206,3.4477,16.54091,16.54091,0,0,0-3.04173,5.83977,27.81407,27.81407,0,0,0-1.09425,8.23334,25.9585,25.9585,0,0,0,1.17488,8.27327,16.81379,16.81379,0,0,0,3.2049,5.79835,12.72721,12.72721,0,0,0,4.78474,3.4477A15.37784,15.37784,0,0,0,301.57309,390.056Z" fill="#3a3a39"/>
      <path d="M404.42417,399.78968h-12.248L389.09294,362.072,377.4135,399.78968H365.81429l-11.519-37.55425-3.08095,37.55425H338.96709l5.6763-56.77856h14.5192l12.8155,42.8274,12.65454-42.8274h14.0318Z" fill="#3a3a39"/>
    </g>
  </g>
</svg>